<?xml version="1.0" encoding="utf-8"?>
<!-- Generator: Adobe Illustrator 19.0.0, SVG Export Plug-In . SVG Version: 6.00 Build 0)  -->
<svg version="1.1" id="Layer_1" xmlns="http://www.w3.org/2000/svg" xmlns:xlink="http://www.w3.org/1999/xlink" x="0px" y="0px"
	 viewBox="0 0 10.9 10.5" style="enable-background:new 0 0 10.9 10.5;" xml:space="preserve">
<style type="text/css">
	.st0{opacity:0.8;}
	.st1{opacity:0.85;fill:#FFFFFF;}
	.st2{opacity:0.3;}
</style>
<g id="XMLID_2018_" class="st0">
	<g id="XMLID_103_">
		<circle id="XMLID_105_" class="st1" cx="5.7" cy="5.2" r="5.2"/>
		<path id="XMLID_104_" class="st2" d="M9.1,9.2c0,0-1.8-0.6-2.2-1C6.8,8,6.6,7.4,6.8,7c0,0,0.4-0.9,0.4-1.2c0,0,0.1,0,0.1,0
			c0.2,0,0.3-0.6,0.3-1c0-0.2-0.1-0.3-0.1-0.3c0,0,0,0,0-0.1V4c0-0.9-0.1-1.4-0.6-1.4c0,0-0.1,0-0.1-0.1C6.7,2.2,6.1,2,5.7,2
			C4.5,2,3.9,2.8,3.9,3.7v0.7c0,0,0,0.1,0,0.1c-0.1,0-0.1,0.1-0.1,0.3c0,0.3,0.1,1,0.3,1h0.1C4.1,6.2,4.5,7,4.5,7
			c0.3,0.4,0,1-0.1,1.1c-0.4,0.4-2.2,1-2.2,1s1.2,1.3,3.5,1.3S9.1,9.2,9.1,9.2z"/>
	</g>
</g>
</svg>
