<?xml version="1.0" encoding="utf-8"?>
<!-- Generator: Adobe Illustrator 19.0.0, SVG Export Plug-In . SVG Version: 6.00 Build 0)  -->
<svg version="1.1" id="Layer_1" xmlns="http://www.w3.org/2000/svg" xmlns:xlink="http://www.w3.org/1999/xlink" x="0px" y="0px"
	 viewBox="-193 195.5 12.3 11.5" style="enable-background:new -193 195.5 12.3 11.5;" xml:space="preserve">
<style type="text/css">
	.st0{fill:#40C4FF;}
	.st1{fill:none;}
</style>
<g id="XMLID_2832_">
	<g id="XMLID_10_">
		<g id="XMLID_11_">
			<g id="XMLID_12_">
				<path class="st0" d="M-187.9,201.9c1.4,0,2.6-1.1,2.6-2.6s-1.1-2.6-2.6-2.6c-1.4,0-2.6,1.1-2.6,2.6S-189.3,201.9-187.9,201.9z
					 M-187.9,203.2c-1.7,0-5.1,0.8-5.1,2.6v1.3h10.2v-1.3C-182.8,204-186.2,203.2-187.9,203.2z"/>
			</g>
		</g>
	</g>
</g>
<g id="XMLID_2831_">
	<g id="XMLID_7_">
		<polygon class="st0" points="-180.7,197.1 -180.7,198.1 -182.3,198.1 -182.3,199.7 -183.3,199.7 -183.3,198.1 -184.8,198.1 
			-184.8,197.1 -183.3,197.1 -183.3,195.5 -182.3,195.5 -182.3,197.1 		"/>
		<path class="st1" d="M-180.7,198.1h-1.5v1.5h-1v-1.5h-1.6v-1h1.6v-1.6h1v1.6h1.5V198.1z"/>
	</g>
</g>
</svg>
